<svg width="320" height="320" viewBox="0 0 320 320" fill="none" xmlns="http://www.w3.org/2000/svg">
<path d="M240 30H160V40H240V30Z" fill="#FFC110"/>
<path d="M190 40H140V50H190V40Z" fill="#FFC110"/>
<path d="M230 40H190V50H230V40Z" fill="#FFF0EE"/>
<path d="M250 40H230V50H250V40Z" fill="#FFC110"/>
<path d="M180 50H130V60H180V50Z" fill="#FFC110"/>
<path d="M200 50H180V60H200V50Z" fill="#FFF0EE"/>
<path d="M220 50H200V60H220V50Z" fill="black"/>
<path d="M240 50H220V60H240V50Z" fill="#FFF0EE"/>
<path d="M250 50H240V60H250V50Z" fill="#FFC110"/>
<path d="M180 60H130V70H180V60Z" fill="#FFC110"/>
<path d="M200 60H180V70H200V60Z" fill="#FFF0EE"/>
<path d="M220 60H200V70H220V60Z" fill="black"/>
<path d="M240 60H220V70H240V60Z" fill="#FFF0EE"/>
<path d="M250 60H240V70H250V60Z" fill="#FFC110"/>
<path d="M260 60H250V70H260V60Z" fill="#FE500C"/>
<path d="M190 70H130V80H190V70Z" fill="#FFC110"/>
<path d="M230 70H190V80H230V70Z" fill="#FFF0EE"/>
<path d="M250 70H230V80H250V70Z" fill="#FFC110"/>
<path d="M280 70H250V80H280V70Z" fill="#FE500C"/>
<path d="M70 80H50V90H70V80Z" fill="#FFC110"/>
<path d="M240 80H140V90H240V80Z" fill="#FFC110"/>
<path d="M270 80H240V90H270V80Z" fill="#FE500C"/>
<path d="M100 90H50V100H100V90Z" fill="#FFC110"/>
<path d="M250 90H150V100H250V90Z" fill="#FFC110"/>
<path d="M260 100H40V110H260V100Z" fill="#FFC110"/>
<path d="M270 110H40V120H270V110Z" fill="#FFC110"/>
<path d="M280 120H40V130H280V120Z" fill="#FFC110"/>
<path d="M280 130H40V140H280V130Z" fill="#FFC110"/>
<path d="M280 140H40V150H280V140Z" fill="#FFC110"/>
<path d="M280 150H50V160H280V150Z" fill="#FFC110"/>
<path d="M280 160H50V170H280V160Z" fill="#FFC110"/>
<path d="M280 170H60V180H280V170Z" fill="#FFC110"/>
<path d="M170 180H60V190H170V180Z" fill="#FFC110"/>
<path d="M180 180H170V190H180V180Z" fill="#D08B11"/>
<path d="M270 180H180V190H270V180Z" fill="#FFC110"/>
<path d="M140 190H70V200H140V190Z" fill="#FFC110"/>
<path d="M170 190H140V200H170V190Z" fill="#D08B11"/>
<path d="M260 190H170V200H260V190Z" fill="#FFC110"/>
<path d="M250 200H90V210H250V200Z" fill="#FFC110"/>
</svg>
