<svg width="320" height="320" viewBox="0 0 320 320" fill="none" xmlns="http://www.w3.org/2000/svg">
<path d="M140 30H130V40H140V30Z" fill="#26B1F3"/>
<path d="M190 30H140V40H190V30Z" fill="#FA6FE2"/>
<path d="M130 40H110V50H130V40Z" fill="#FA6FE2"/>
<path d="M140 40H130V50H140V40Z" fill="#26B1F3"/>
<path d="M180 40H140V50H180V40Z" fill="#FA6FE2"/>
<path d="M190 40H180V50H190V40Z" fill="#FEE3F3"/>
<path d="M210 40H190V50H210V40Z" fill="#FA6FE2"/>
<path d="M190 50H90V60H190V50Z" fill="#FA6FE2"/>
<path d="M200 50H190V60H200V50Z" fill="#FEE3F3"/>
<path d="M230 50H200V60H230V50Z" fill="#FA6FE2"/>
<path d="M160 60H80V70H160V60Z" fill="#FA6FE2"/>
<path d="M170 60H160V70H170V60Z" fill="#FFE939"/>
<path d="M220 60H170V70H220V60Z" fill="#FA6FE2"/>
<path d="M240 60H220V70H240V60Z" fill="#E9265C"/>
<path d="M100 70H80V80H100V70Z" fill="#FA6FE2"/>
<path d="M120 70H100V80H120V70Z" fill="#FEE3F3"/>
<path d="M130 70H120V80H130V70Z" fill="#FA6FE2"/>
<path d="M140 70H130V80H140V70Z" fill="#E9265C"/>
<path d="M170 70H140V80H170V70Z" fill="#FA6FE2"/>
<path d="M180 70H170V80H180V70Z" fill="#FFE939"/>
<path d="M240 70H180V80H240V70Z" fill="#FA6FE2"/>
<path d="M140 80H70V90H140V80Z" fill="#FA6FE2"/>
<path d="M150 80H140V90H150V80Z" fill="#E9265C"/>
<path d="M160 80H150V90H160V80Z" fill="#FA6FE2"/>
<path d="M170 80H160V90H170V80Z" fill="#F38B7C"/>
<path d="M220 80H170V90H220V80Z" fill="#FA6FE2"/>
<path d="M230 80H220V90H230V80Z" fill="#26B1F3"/>
<path d="M250 80H230V90H250V80Z" fill="#FA6FE2"/>
<path d="M140 90H70V100H140V90Z" fill="#FA6FE2"/>
<path d="M190 90H140V100H190V90Z" fill="#F38B7C"/>
<path d="M210 90H190V100H210V90Z" fill="#FA6FE2"/>
<path d="M220 90H210V100H220V90Z" fill="#26B1F3"/>
<path d="M250 90H220V100H250V90Z" fill="#FA6FE2"/>
<path d="M100 100H60V110H100V100Z" fill="#FA6FE2"/>
<path d="M110 100H100V110H110V100Z" fill="#FFE939"/>
<path d="M130 100H110V110H130V100Z" fill="#FA6FE2"/>
<path d="M140 100H130V110H140V100Z" fill="#F38B7C"/>
<path d="M190 100H180V110H190V100Z" fill="#F38B7C"/>
<path d="M250 100H190V110H250V100Z" fill="#FA6FE2"/>
<path d="M260 100H250V110H260V100Z" fill="#4BEA69"/>
<path d="M70 110H60V120H70V110Z" fill="#FA6FE2"/>
<path d="M90 110H70V120H90V110Z" fill="#4BEA69"/>
<path d="M100 110H90V120H100V110Z" fill="#FA6FE2"/>
<path d="M110 110H100V120H110V110Z" fill="#FFE939"/>
<path d="M120 110H110V120H120V110Z" fill="#FA6FE2"/>
<path d="M130 110H120V120H130V110Z" fill="#F38B7C"/>
<path d="M200 110H190V120H200V110Z" fill="#F38B7C"/>
<path d="M220 110H200V120H220V110Z" fill="#FFE939"/>
<path d="M250 110H220V120H250V110Z" fill="#FA6FE2"/>
<path d="M260 110H250V120H260V110Z" fill="#4BEA69"/>
<path d="M120 120H60V130H120V120Z" fill="#FA6FE2"/>
<path d="M130 120H120V130H130V120Z" fill="#F38B7C"/>
<path d="M200 120H190V130H200V120Z" fill="#F38B7C"/>
<path d="M260 120H200V130H260V120Z" fill="#FA6FE2"/>
<path d="M120 130H60V140H120V130Z" fill="#FA6FE2"/>
<path d="M130 130H120V140H130V130Z" fill="#F38B7C"/>
<path d="M200 130H190V140H200V130Z" fill="#F38B7C"/>
<path d="M260 130H200V140H260V130Z" fill="#FA6FE2"/>
<path d="M80 140H60V150H80V140Z" fill="#FA6FE2"/>
<path d="M90 140H80V150H90V140Z" fill="#26B1F3"/>
<path d="M120 140H90V150H120V140Z" fill="#FA6FE2"/>
<path d="M130 140H120V150H130V140Z" fill="#F38B7C"/>
<path d="M200 140H190V150H200V140Z" fill="#F38B7C"/>
<path d="M230 140H200V150H230V140Z" fill="#FA6FE2"/>
<path d="M250 140H230V150H250V140Z" fill="#FEE3F3"/>
<path d="M260 140H250V150H260V140Z" fill="#FA6FE2"/>
<path d="M80 150H60V160H80V150Z" fill="#FA6FE2"/>
<path d="M90 150H80V160H90V150Z" fill="#26B1F3"/>
<path d="M120 150H90V160H120V150Z" fill="#FA6FE2"/>
<path d="M140 150H120V160H140V150Z" fill="#F38B7C"/>
<path d="M190 150H180V160H190V150Z" fill="#F38B7C"/>
<path d="M210 150H190V160H210V150Z" fill="#FA6FE2"/>
<path d="M220 150H210V160H220V150Z" fill="#26B1F3"/>
<path d="M260 150H220V160H260V150Z" fill="#FA6FE2"/>
<path d="M140 160H70V170H140V160Z" fill="#FA6FE2"/>
<path d="M190 160H140V170H190V160Z" fill="#F38B7C"/>
<path d="M220 160H190V170H220V160Z" fill="#FA6FE2"/>
<path d="M230 160H220V170H230V160Z" fill="#26B1F3"/>
<path d="M250 160H230V170H250V160Z" fill="#FA6FE2"/>
<path d="M110 170H70V180H110V170Z" fill="#FA6FE2"/>
<path d="M120 170H110V180H120V170Z" fill="#FEE3F3"/>
<path d="M180 170H120V180H180V170Z" fill="#FA6FE2"/>
<path d="M200 170H180V180H200V170Z" fill="#E9265C"/>
<path d="M250 170H200V180H250V170Z" fill="#FA6FE2"/>
<path d="M100 180H80V190H100V180Z" fill="#FA6FE2"/>
<path d="M110 180H100V190H110V180Z" fill="#FEE3F3"/>
<path d="M150 180H110V190H150V180Z" fill="#FA6FE2"/>
<path d="M160 180H150V190H160V180Z" fill="#26B1F3"/>
<path d="M240 180H160V190H240V180Z" fill="#FA6FE2"/>
<path d="M150 190H80V200H150V190Z" fill="#FA6FE2"/>
<path d="M160 190H150V200H160V190Z" fill="#26B1F3"/>
<path d="M200 190H160V200H200V190Z" fill="#1F1D29"/>
<path d="M210 190H200V200H210V190Z" fill="#FFE939"/>
<path d="M240 190H210V200H240V190Z" fill="#FA6FE2"/>
<path d="M110 200H90V210H110V200Z" fill="#FA6FE2"/>
<path d="M120 200H110V210H120V200Z" fill="#E9265C"/>
<path d="M210 200H120V210H210V200Z" fill="#FA6FE2"/>
<path d="M220 200H210V210H220V200Z" fill="#FFE939"/>
<path d="M230 200H220V210H230V200Z" fill="#FA6FE2"/>
<path d="M120 210H110V220H120V210Z" fill="#E9265C"/>
<path d="M210 210H120V220H210V210Z" fill="#FA6FE2"/>
<path d="M140 220H130V230H140V220Z" fill="#FA6FE2"/>
<path d="M160 220H140V230H160V220Z" fill="#4BEA69"/>
<path d="M190 220H160V230H190V220Z" fill="#FA6FE2"/>
</svg>
