<svg width="320" height="320" viewBox="0 0 320 320" fill="none" xmlns="http://www.w3.org/2000/svg">
<path d="M150 40H70V50H150V40Z" fill="#395ED1"/>
<path d="M120 50H60V60H120V50Z" fill="#395ED1"/>
<path d="M130 50H120V60H130V50Z" fill="#FFC925"/>
<path d="M170 50H130V60H170V50Z" fill="#395ED1"/>
<path d="M70 60H60V70H70V60Z" fill="#395ED1"/>
<path d="M110 60H90V70H110V60Z" fill="#395ED1"/>
<path d="M140 60H110V70H140V60Z" fill="#FFC925"/>
<path d="M180 60H140V70H180V60Z" fill="#395ED1"/>
<path d="M70 70H60V80H70V70Z" fill="#FFC925"/>
<path d="M120 70H100V80H120V70Z" fill="#395ED1"/>
<path d="M130 70H120V80H130V70Z" fill="#FFC925"/>
<path d="M190 70H130V80H190V70Z" fill="#395ED1"/>
<path d="M90 80H40V90H90V80Z" fill="#FFC925"/>
<path d="M150 80H110V90H150V80Z" fill="#395ED1"/>
<path d="M160 80H150V90H160V80Z" fill="#FFC925"/>
<path d="M200 80H160V90H200V80Z" fill="#395ED1"/>
<path d="M80 90H50V100H80V90Z" fill="#FFC925"/>
<path d="M140 90H120V100H140V90Z" fill="#395ED1"/>
<path d="M150 90H140V100H150V90Z" fill="#FFC925"/>
<path d="M160 90H150V100H160V90Z" fill="#395ED1"/>
<path d="M170 90H160V100H170V90Z" fill="#FFC925"/>
<path d="M180 90H170V100H180V90Z" fill="#395ED1"/>
<path d="M190 90H180V100H190V90Z" fill="#FFC925"/>
<path d="M210 90H190V100H210V90Z" fill="#395ED1"/>
<path d="M60 100H50V110H60V100Z" fill="#FFC925"/>
<path d="M80 100H70V110H80V100Z" fill="#FFC925"/>
<path d="M150 100H130V110H150V100Z" fill="#395ED1"/>
<path d="M160 100H150V110H160V100Z" fill="#FFC925"/>
<path d="M220 100H160V110H220V100Z" fill="#395ED1"/>
<path d="M230 110H130V120H230V110Z" fill="#395ED1"/>
<path d="M200 120H120V130H200V120Z" fill="#395ED1"/>
<path d="M210 120H200V130H210V120Z" fill="#FFC925"/>
<path d="M230 120H210V130H230V120Z" fill="#395ED1"/>
<path d="M130 130H120V140H130V130Z" fill="#395ED1"/>
<path d="M140 130H130V140H140V130Z" fill="#FFC925"/>
<path d="M190 130H140V140H190V130Z" fill="#395ED1"/>
<path d="M220 130H190V140H220V130Z" fill="#FFC925"/>
<path d="M240 130H220V140H240V130Z" fill="#395ED1"/>
<path d="M200 140H120V150H200V140Z" fill="#395ED1"/>
<path d="M210 140H200V150H210V140Z" fill="#FFC925"/>
<path d="M240 140H210V150H240V140Z" fill="#395ED1"/>
<path d="M160 150H120V160H160V150Z" fill="#395ED1"/>
<path d="M170 150H160V160H170V150Z" fill="#FFC925"/>
<path d="M240 150H170V160H240V150Z" fill="#395ED1"/>
<path d="M240 160H110V170H240V160Z" fill="#395ED1"/>
<path d="M240 170H100V180H240V170Z" fill="#395ED1"/>
<path d="M160 180H90V190H160V180Z" fill="#395ED1"/>
<path d="M210 180H160V190H210V180Z" fill="#1F1D29"/>
<path d="M230 180H210V190H230V180Z" fill="#395ED1"/>
<path d="M250 190H70V200H250V190Z" fill="#00499C"/>
<path d="M270 200H50V210H270V200Z" fill="#00499C"/>
</svg>
