<svg width="320" height="320" viewBox="0 0 320 320" fill="none" xmlns="http://www.w3.org/2000/svg">
<path d="M80 40H70V50H80V40Z" fill="#EAB118"/>
<path d="M170 40H150V50H170V40Z" fill="#EAB118"/>
<path d="M250 40H240V50H250V40Z" fill="#EAB118"/>
<path d="M80 50H70V60H80V50Z" fill="#EAB118"/>
<path d="M170 50H150V60H170V50Z" fill="#EAB118"/>
<path d="M250 50H240V60H250V50Z" fill="#EAB118"/>
<path d="M90 60H70V70H90V60Z" fill="#EAB118"/>
<path d="M180 60H140V70H180V60Z" fill="#EAB118"/>
<path d="M250 60H230V70H250V60Z" fill="#EAB118"/>
<path d="M80 70H60V80H80V70Z" fill="#257CED"/>
<path d="M90 70H80V80H90V70Z" fill="#DB8323"/>
<path d="M100 70H90V80H100V70Z" fill="#EAB118"/>
<path d="M140 70H130V80H140V70Z" fill="#EAB118"/>
<path d="M180 70H140V80H180V70Z" fill="#34AC80"/>
<path d="M190 70H180V80H190V70Z" fill="#EAB118"/>
<path d="M230 70H220V80H230V70Z" fill="#EAB118"/>
<path d="M240 70H230V80H240V70Z" fill="#DB8323"/>
<path d="M260 70H240V80H260V70Z" fill="#FF1A0B"/>
<path d="M70 80H60V90H70V80Z" fill="#257CED"/>
<path d="M80 80H70V90H80V80Z" fill="#00499C"/>
<path d="M90 80H80V90H90V80Z" fill="#DB8323"/>
<path d="M110 80H90V90H110V80Z" fill="#EAB118"/>
<path d="M140 80H120V90H140V80Z" fill="#EAB118"/>
<path d="M150 80H140V90H150V80Z" fill="#34AC80"/>
<path d="M170 80H150V90H170V80Z" fill="#42FFB0"/>
<path d="M180 80H170V90H180V80Z" fill="#068940"/>
<path d="M200 80H180V90H200V80Z" fill="#EAB118"/>
<path d="M230 80H210V90H230V80Z" fill="#EAB118"/>
<path d="M240 80H230V90H240V80Z" fill="#DB8323"/>
<path d="M250 80H240V90H250V80Z" fill="#D22209"/>
<path d="M260 80H250V90H260V80Z" fill="#FF1A0B"/>
<path d="M80 90H60V100H80V90Z" fill="#00499C"/>
<path d="M90 90H80V100H90V90Z" fill="#DB8323"/>
<path d="M140 90H90V100H140V90Z" fill="#EAB118"/>
<path d="M160 90H140V100H160V90Z" fill="#34AC80"/>
<path d="M180 90H160V100H180V90Z" fill="#068940"/>
<path d="M230 90H180V100H230V90Z" fill="#EAB118"/>
<path d="M240 90H230V100H240V90Z" fill="#DB8323"/>
<path d="M260 90H240V100H260V90Z" fill="#D22209"/>
<path d="M250 100H70V110H250V100Z" fill="#EAB118"/>
<path d="M250 110H70V120H250V110Z" fill="#EAB118"/>
<path d="M250 120H70V130H250V120Z" fill="#EAB118"/>
<path d="M250 130H70V140H250V130Z" fill="#EAB118"/>
<path d="M250 140H70V150H250V140Z" fill="#EAB118"/>
<path d="M250 150H70V160H250V150Z" fill="#EAB118"/>
<path d="M250 160H70V170H250V160Z" fill="#EAB118"/>
<path d="M250 170H70V180H250V170Z" fill="#EAB118"/>
<path d="M90 180H80V190H90V180Z" fill="#6E3206"/>
<path d="M140 180H90V190H140V180Z" fill="#DB8323"/>
<path d="M180 180H140V190H180V180Z" fill="#6E3206"/>
<path d="M230 180H180V190H230V180Z" fill="#DB8323"/>
<path d="M240 180H230V190H240V180Z" fill="#6E3206"/>
<path d="M250 190H70V200H250V190Z" fill="#EAB118"/>
<path d="M250 200H70V210H250V200Z" fill="#EAB118"/>
</svg>
