<svg width="320" height="320" viewBox="0 0 320 320" fill="none" xmlns="http://www.w3.org/2000/svg">
<path d="M230 20H190V30H230V20Z" fill="#254EFB"/>
<path d="M240 30H180V40H240V30Z" fill="#254EFB"/>
<path d="M250 40H170V50H250V40Z" fill="#254EFB"/>
<path d="M260 50H160V60H260V50Z" fill="#254EFB"/>
<path d="M210 60H150V70H210V60Z" fill="#254EFB"/>
<path d="M220 60H210V70H220V60Z" fill="#1F1D29"/>
<path d="M270 60H220V70H270V60Z" fill="#254EFB"/>
<path d="M30 70H20V80H30V70Z" fill="#254EFB"/>
<path d="M80 70H70V80H80V70Z" fill="#254EFB"/>
<path d="M200 70H140V80H200V70Z" fill="#254EFB"/>
<path d="M210 70H200V80H210V70Z" fill="#1F1D29"/>
<path d="M220 70H210V80H220V70Z" fill="#254EFB"/>
<path d="M230 70H220V80H230V70Z" fill="#1F1D29"/>
<path d="M280 70H230V80H280V70Z" fill="#254EFB"/>
<path d="M40 80H20V90H40V80Z" fill="#254EFB"/>
<path d="M80 80H60V90H80V80Z" fill="#254EFB"/>
<path d="M280 80H130V90H280V80Z" fill="#254EFB"/>
<path d="M290 80H280V90H290V80Z" fill="#26B1F3"/>
<path d="M80 90H20V100H80V90Z" fill="#254EFB"/>
<path d="M280 90H130V100H280V90Z" fill="#254EFB"/>
<path d="M290 90H280V100H290V90Z" fill="#26B1F3"/>
<path d="M70 100H30V110H70V100Z" fill="#254EFB"/>
<path d="M270 100H140V110H270V100Z" fill="#254EFB"/>
<path d="M300 100H270V110H300V100Z" fill="#26B1F3"/>
<path d="M70 110H40V120H70V110Z" fill="#254EFB"/>
<path d="M260 110H140V120H260V110Z" fill="#254EFB"/>
<path d="M300 110H260V120H300V110Z" fill="#26B1F3"/>
<path d="M90 120H40V130H90V120Z" fill="#254EFB"/>
<path d="M250 120H140V130H250V120Z" fill="#254EFB"/>
<path d="M300 120H250V130H300V120Z" fill="#26B1F3"/>
<path d="M50 130H40V140H50V130Z" fill="#26B1F3"/>
<path d="M240 130H50V140H240V130Z" fill="#254EFB"/>
<path d="M300 130H240V140H300V130Z" fill="#26B1F3"/>
<path d="M60 140H50V150H60V140Z" fill="#26B1F3"/>
<path d="M230 140H60V150H230V140Z" fill="#254EFB"/>
<path d="M300 140H230V150H300V140Z" fill="#26B1F3"/>
<path d="M80 150H50V160H80V150Z" fill="#26B1F3"/>
<path d="M220 150H80V160H220V150Z" fill="#254EFB"/>
<path d="M290 150H220V160H290V150Z" fill="#26B1F3"/>
<path d="M110 160H60V170H110V160Z" fill="#26B1F3"/>
<path d="M210 160H110V170H210V160Z" fill="#254EFB"/>
<path d="M290 160H210V170H290V160Z" fill="#26B1F3"/>
<path d="M120 170H60V180H120V170Z" fill="#26B1F3"/>
<path d="M200 170H120V180H200V170Z" fill="#254EFB"/>
<path d="M280 170H200V180H280V170Z" fill="#26B1F3"/>
<path d="M120 180H70V190H120V180Z" fill="#26B1F3"/>
<path d="M130 180H120V190H130V180Z" fill="#254EFB"/>
<path d="M160 180H130V190H160V180Z" fill="#1F1D29"/>
<path d="M190 180H160V190H190V180Z" fill="#254EFB"/>
<path d="M270 180H190V190H270V180Z" fill="#26B1F3"/>
<path d="M110 190H80V200H110V190Z" fill="#26B1F3"/>
<path d="M180 190H110V200H180V190Z" fill="#254EFB"/>
<path d="M260 190H180V200H260V190Z" fill="#26B1F3"/>
<path d="M100 200H90V210H100V200Z" fill="#26B1F3"/>
<path d="M160 200H100V210H160V200Z" fill="#254EFB"/>
<path d="M240 200H160V210H240V200Z" fill="#26B1F3"/>
<path d="M210 210H120V220H210V210Z" fill="#26B1F3"/>
</svg>
